<?xml version="1.0" encoding="UTF-8" standalone="no"?>
<svg
   xmlns:dc="http://purl.org/dc/elements/1.1/"
   xmlns:cc="http://creativecommons.org/ns#"
   xmlns:rdf="http://www.w3.org/1999/02/22-rdf-syntax-ns#"
   xmlns:svg="http://www.w3.org/2000/svg"
   xmlns="http://www.w3.org/2000/svg"
   xmlns:sodipodi="http://sodipodi.sourceforge.net/DTD/sodipodi-0.dtd"
   xmlns:inkscape="http://www.inkscape.org/namespaces/inkscape"
   enable-background="new 0 0 16 16"
   viewBox="0 0 32 32"
   version="1.1"
   id="svg14"
   sodipodi:docname="icon_mesh_instance_add.svg"
   width="32"
   height="32"
   inkscape:version="1.0 (4035a4f, 2020-05-01)">
  <metadata
     id="metadata20">
    <rdf:RDF>
      <cc:Work
         rdf:about="">
        <dc:format>image/svg+xml</dc:format>
        <dc:type
           rdf:resource="http://purl.org/dc/dcmitype/StillImage" />
        <dc:title />
      </cc:Work>
    </rdf:RDF>
  </metadata>
  <defs
     id="defs18" />
  <sodipodi:namedview
     inkscape:document-rotation="0"
     pagecolor="#ffffff"
     bordercolor="#666666"
     borderopacity="1"
     objecttolerance="10"
     gridtolerance="10"
     guidetolerance="10"
     inkscape:pageopacity="0"
     inkscape:pageshadow="2"
     inkscape:window-width="1447"
     inkscape:window-height="880"
     id="namedview16"
     showgrid="false"
     inkscape:zoom="15.152456"
     inkscape:cx="13.134034"
     inkscape:cy="15.919508"
     inkscape:window-x="0"
     inkscape:window-y="0"
     inkscape:window-maximized="0"
     inkscape:current-layer="svg14" />
  <path
     style="stroke-width:0.217584"
     d="M 14.686832,0.69901271 C 13.695328,0.76347332 12.946191,0.91388142 11.161483,1.4295663 10.544547,1.6014613 10.412346,1.6659219 9.5971094,2.0741725 8.1649363,2.7832392 7.790368,3.0195948 6.820897,3.814609 5.7192254,4.6955707 5.3226237,5.1038213 4.2870524,6.3500598 3.8023169,6.9516922 3.3836817,7.5962983 2.9650465,8.4127994 2.5904781,9.1648399 2.3481104,9.7449854 2.1057426,10.475539 c -0.3745683,1.117317 -0.5508358,1.933818 -0.6389695,3.137083 -0.044067,0.515685 -0.044067,2.041253 0.022034,2.556938 0.1101671,1.09583 0.2203343,1.761923 0.5067689,2.621398 0.0661,0.214869 0.1762674,0.601632 0.2644012,0.837988 0.154234,0.537172 0.1983008,0.644606 0.4406686,1.09583 0.2864346,0.558659 0.6389695,1.160291 1.0796381,1.826384 0.661003,0.988397 1.0355713,1.461108 1.8287749,2.213148 0.7491367,0.730554 1.4762399,1.332186 2.2253766,1.847871 0.4847355,0.322303 1.938942,1.117317 2.3575776,1.289212 0.969471,0.365277 2.467744,0.795015 2.996547,0.880962 0.132199,0.02149 0.330501,0.04297 0.418635,0.08595 0.08813,0.02149 0.286434,0.04297 0.484735,0.06446 1.013538,0.06446 4.164319,-0.04297 4.869388,-0.171895 0.903371,-0.171895 2.489779,-0.666093 3.238915,-1.052856 0.683036,-0.34379 1.674541,-0.880962 2.071143,-1.160292 0.83727,-0.580145 2.071141,-1.675975 2.798245,-2.513963 1.47624,-1.697463 2.489777,-3.609795 3.040613,-5.758482 0.110167,-0.40825 0.220335,-0.945422 0.242368,-1.224751 0.132201,-1.074344 0.110167,-4.061019 -0.0661,-4.920494 C 30.154301,11.442448 29.625499,9.7879591 29.272964,9.0144318 29.162797,8.7565893 28.457727,7.5318377 28.259426,7.2310215 27.730624,6.4360073 26.827253,5.3616637 26.16625,4.6955707 25.989983,4.5236757 25.505247,4.1154252 24.447642,3.2559504 24.271375,3.1270291 24.073074,2.976621 23.98494,2.9336473 23.896807,2.8906735 23.632405,2.7402655 23.412071,2.6328311 22.310399,2.0311987 21.517196,1.6659219 20.768059,1.4295663 19.247752,0.95685516 18.961318,0.89239455 18.146081,0.78496019 17.30881,0.69901271 15.546136,0.65603897 14.686832,0.69901271 Z m 0.396602,1.24623849 0.176267,0.042974 -0.02203,2.320582 c -0.02203,2.2776084 -0.02203,2.5139639 -0.08813,2.7288326 -0.02203,0.042974 -0.04407,0.064461 -0.08813,0.085947 -0.110167,0.021487 -1.057604,0.085947 -2.005042,0.1074344 -1.013538,0.021487 -3.6575495,0.021487 -3.7677166,-0.021487 -0.044067,-0.021487 -0.0661,-0.021487 -0.0661,-0.085947 0,-0.1504081 0.3305014,-0.8165011 0.7050698,-1.3966466 C 10.43438,4.9104394 10.830982,4.4162414 11.469951,3.814609 12.086887,3.2129766 12.74789,2.7187786 13.298726,2.4394493 13.739395,2.2245805 14.312264,1.988225 14.532598,1.9452512 c 0.154234,-0.042974 0.396602,-0.021487 0.550836,0 z m 2.071142,0 c 0.176268,0.042974 0.352535,0.1289213 0.837271,0.34379 0.859304,0.3867636 1.432173,0.7950142 2.18131,1.5040809 0.550835,0.5371718 0.859303,0.9239355 1.299972,1.5685416 0.506769,0.7520405 0.925404,1.5470547 0.925404,1.7189497 0,0.021487 -0.02203,0.064461 -0.04407,0.064461 -0.110167,0.042974 -1.167772,0.064461 -3.040613,0.064461 -2.357577,0 -2.754179,-0.021487 -2.820279,-0.1504081 -0.0661,-0.1289212 -0.08813,-0.9454223 -0.04407,-2.4280164 0.04407,-1.7619234 0.08813,-2.3850427 0.154234,-2.5569376 0.02203,-0.1504081 0.264401,-0.1933819 0.550835,-0.1289213 z m 4.825322,1.2677254 c 0.83727,0.4297374 1.101672,0.5801455 1.41014,0.7735274 0.969471,0.6446061 2.335543,1.9123315 3.01858,2.7932932 0.176267,0.2148687 0.220334,0.3008162 0.176267,0.3437899 -0.02203,0.021487 -0.176267,0.021487 -0.396602,0.042974 C 25.769648,7.1880477 24.095107,7.1880477 23.98494,7.145074 23.874773,7.1021003 23.654439,6.8012841 23.169703,5.9418092 22.707001,5.1253081 22.354466,4.5666495 21.869731,3.986504 21.274828,3.2344635 21.03246,2.8691867 21.076527,2.8047261 c 0.04407,-0.042974 0.220335,0.042974 0.903371,0.4082505 z M 10.324213,3.0840554 C 10.346246,3.148516 10.147945,3.4493322 9.7072766,4.0294777 9.2225411,4.652597 8.759839,5.3616637 8.4073041,5.984783 7.944602,6.8442578 7.7463011,7.145074 7.6581674,7.2095346 7.3496994,7.3599427 5.4107574,7.3599427 5.2124565,7.1880477 5.1683896,7.145074 5.1904231,7.0806134 5.2785568,6.9302053 5.6310917,6.3715466 7.0412313,5.0178738 7.9005352,4.3732676 8.4954378,3.9220434 9.7072766,3.2344635 10.147945,3.0625685 c 0.176268,-0.021487 0.176268,-0.021487 0.176268,0.021487 z m 17.119976,5.2857702 c 0.352535,0.1933819 1.101672,1.9338184 1.520307,3.5238464 0.176267,0.644607 0.286434,1.504081 0.286434,1.826385 0,0.214868 -0.04407,0.279329 -0.286434,0.322303 -0.286435,0.06446 -1.013538,0.08595 -1.983009,0.06446 -1.101672,-0.02149 -1.564374,-0.06446 -1.630474,-0.150408 -0.08813,-0.08595 -0.154234,-0.472711 -0.198301,-1.332186 -0.04407,-0.68758 -0.08813,-1.074343 -0.154234,-1.353673 -0.02203,-0.128921 -0.1322,-0.558658 -0.198301,-0.945422 C 24.62391,9.5086298 24.579843,9.2937611 24.447642,8.9499712 24.315442,8.649155 24.315442,8.5202337 24.425609,8.47726 c 0.0661,-0.042974 0.550836,-0.085947 0.991504,-0.1074344 0.176268,-0.021487 0.70507,-0.021487 1.167772,-0.021487 0.70507,-0.021487 0.793204,0 0.859304,0.021487 z M 6.666663,8.4127994 c 0.6610029,0.042974 0.7491367,0.085947 0.6169361,0.3867637 -0.154234,0.3437899 -0.3305015,1.1173173 -0.5288024,2.1486869 -0.154234,0.880962 -0.2423677,1.504081 -0.2864346,2.191661 -0.044067,0.451224 -0.088134,0.730554 -0.1322006,0.837988 -0.044067,0.06446 -0.154234,0.128921 -0.308468,0.150408 -0.1983009,0.04297 -1.6525074,0.06446 -2.3355438,0.06446 C 2.7006453,14.171277 2.7006453,14.171277 2.6786119,13.612621 2.6565779,13.13991 2.7226789,12.473817 2.8328459,12.04408 2.8769129,11.872185 3.2294477,10.754867 3.3836817,10.346617 3.6480829,9.5730904 3.9785843,8.9499712 4.2209521,8.649155 4.3751861,8.47726 4.4853533,8.4342863 4.9260219,8.4342863 5.4327908,8.3913125 6.2259944,8.3913125 6.666663,8.4127994 Z m 7.887969,0.021487 c 0.352534,0.021487 0.528802,0.042974 0.572869,0.064461 0.04407,0.042974 0.04407,0.4082505 0.04407,1.4396203 0,1.2462393 -0.04407,4.0610193 -0.0661,4.0825063 0,0 -1.498273,0.02149 -3.327048,0.02149 -4.0321179,0.02149 -4.142285,0.02149 -4.1643184,-0.171895 -0.022034,-0.429738 0.088134,-1.482594 0.2644011,-2.556938 0.2203344,-1.3751603 0.6169361,-2.6858594 0.8372704,-2.8577544 0.044067,-0.042974 0.1101672,-0.042974 0.2864346,-0.064461 0.7050699,0 4.7151543,0 5.5524253,0.042974 z m 8.504904,0.1933818 c 0.286435,0.7090667 0.484736,1.5255678 0.683037,2.6858588 0.154234,0.923935 0.242367,1.675976 0.242367,2.191661 0,0.386763 -0.02203,0.472711 -0.110167,0.494198 -0.198301,0.06446 -1.41014,0.107434 -3.525349,0.107434 -2.533845,0 -3.85585,-0.04297 -3.966018,-0.150408 -0.04407,-0.04297 -0.04407,-2.019766 -0.02203,-3.545334 0.02203,-0.6875794 0.02203,-1.3966461 0.02203,-1.6115148 V 8.4342863 c 0,0 1.47624,-0.021487 3.282982,-0.021487 h 3.282981 z m 5.618525,6.5964688 c 0.176268,0.02149 0.374569,0.04297 0.418635,0.04297 0.08813,0.02149 0.110168,0.04297 0.132201,0.107435 0.04407,0.107434 0.02203,0.558658 -0.02203,0.902448 -0.132201,1.117317 -0.506769,2.535451 -0.925405,3.609794 -0.308468,0.773528 -0.705069,1.37516 -0.969471,1.439621 -0.154234,0.04297 -0.661002,0.06446 -1.806741,0.06446 -0.616936,0 -1.145738,0 -1.145738,0 v -0.300816 c 0.02203,-0.257842 0.02203,-0.300816 0.110167,-0.580145 0.264401,-0.795014 0.528802,-2.213148 0.683036,-3.84615 0.110167,-1.074344 0.154234,-1.289212 0.286435,-1.353673 0.0661,-0.04297 0.396602,-0.06446 0.859304,-0.107434 0.506769,0 2.027075,0 2.37961,0.02149 z M 5.8293926,15.331572 c 0.308468,0.02149 0.4186352,0.06446 0.4627021,0.150408 0.044067,0.107434 0.1101671,0.537172 0.154234,0.966909 0.044067,0.558659 0.088134,0.902449 0.1762674,1.482594 0.1983009,1.267726 0.4406687,2.363556 0.6389695,2.965188 0.088134,0.27933 0.1101672,0.472712 0.0661,0.515685 -0.0661,0.06446 -0.3525349,0.08595 -1.277939,0.08595 -1.277939,0.02149 -1.4542065,0 -1.6745408,-0.214869 C 4.1107849,21.04708 3.604016,20.01571 3.2955479,19.091774 2.7226787,17.394311 2.480311,15.653875 2.7667456,15.417519 c 0.088134,-0.107434 2.1813097,-0.150408 3.062647,-0.08595 z m 17.9792804,0 c 0.1322,0.02149 0.1322,0.02149 0.176267,0.107434 0.04407,0.08595 0.04407,0.128921 0.04407,0.494198 0,1.246239 -0.484735,3.867637 -0.903371,4.941981 -0.04407,0.107434 -0.1322,0.279329 -0.1983,0.386763 l -0.110168,0.171895 H 19.60029 16.383409 l -0.04407,-0.171895 c -0.02203,-0.08595 -0.04407,-0.34379 -0.04407,-0.537172 -0.02203,-0.923935 0.08813,-5.113875 0.154234,-5.28577 0.02203,-0.04297 0.0661,-0.06446 0.418635,-0.06446 0.947437,-0.08595 6.565962,-0.08595 6.940531,-0.04297 z m -9.055741,0 0.374569,0.02149 0.02203,2.084226 c 0.02203,2.81478 0,3.631281 -0.110167,3.910611 l -0.04407,0.128921 h -2.666045 c -2.9524799,0 -3.4372154,-0.02149 -3.5253491,-0.107434 -0.4406687,-0.408251 -1.1677719,-3.78169 -1.1677719,-5.586587 0,-0.40825 0,-0.40825 0.2644012,-0.429737 0.4406686,-0.04297 5.8388598,-0.04297 6.8523968,-0.02149 z m 6.191395,7.262562 c 0.947437,0.04297 1.322006,0.06446 1.344039,0.150408 0.02203,0.04297 -0.08813,0.34379 -0.242368,0.644606 -0.440668,0.837988 -1.079638,1.697463 -1.828775,2.449504 -1.079638,1.074343 -1.983008,1.611515 -3.128747,1.869358 -0.330501,0.06446 -0.661003,0.08595 -0.727103,0.02149 -0.0661,-0.06446 -0.08813,-0.644606 -0.0661,-2.385042 0.02203,-1.912332 0.04407,-2.556938 0.1322,-2.642885 0.04407,-0.04297 0.396602,-0.08595 1.013538,-0.107435 0.70507,-0.02149 2.820279,-0.02149 3.503316,0 z m 5.045656,0 c 0.396601,0.02149 0.528802,0.04297 0.550835,0.107435 0.02203,0.04297 -0.08813,0.236355 -0.220334,0.40825 -0.308468,0.386764 -1.167772,1.224752 -1.828775,1.761924 -0.727103,0.601632 -1.145738,0.902448 -1.806741,1.267725 -0.264401,0.128921 -0.594903,0.322303 -0.727103,0.40825 -0.484736,0.300817 -0.815237,0.408251 -0.881338,0.365277 -0.04407,-0.04297 -0.02203,-0.06446 0.594903,-0.859475 0.418635,-0.515684 0.925404,-1.267725 1.211839,-1.718949 0.0661,-0.128921 0.286434,-0.515685 0.484735,-0.837988 0.374569,-0.68758 0.440669,-0.773528 0.484736,-0.816501 0.1322,-0.08595 1.366072,-0.128922 2.137243,-0.08595 z m -11.016716,0.06446 c 0.02203,0.02149 0.0661,0.08595 0.0661,0.128921 0.0661,0.193382 0.04407,2.922215 -0.02203,4.512243 l -0.02203,0.365277 -0.286434,0.02149 c -0.176268,0.02149 -0.330502,0 -0.440669,0 C 13.585168,27.57909 12.593663,26.998945 11.690292,26.13947 10.853022,25.365943 10.302186,24.656876 9.7733839,23.73294 9.575083,23.38915 9.4428824,23.174282 9.3767821,23.131308 c -0.044067,-0.04297 -0.088134,-0.214869 -0.0661,-0.279329 0.022033,-0.128922 0.2644012,-0.150408 1.6965739,-0.150408 1.189805,0 2.88638,-0.04297 3.260948,-0.06446 0.132201,-0.02149 0.330501,-0.02149 0.440669,-0.02149 0.176267,0 0.220334,0 0.264401,0.04297 z m -7.3150996,0.08595 c 0.1322006,0.04297 0.2864346,0.171895 0.3966018,0.322303 0.044067,0.04297 0.1983009,0.322303 0.3525349,0.62312 0.4847355,0.880961 0.7491367,1.289212 1.4982733,2.256121 0.4406686,0.580146 0.5067686,0.68758 0.4186356,0.68758 -0.132201,0 -0.308468,-0.04297 -0.6830367,-0.236356 C 8.9801733,26.075007 8.2090032,25.580809 7.6802008,25.151072 6.9090307,24.527953 5.5209245,23.152793 5.388724,22.873464 5.36669,22.809004 5.36669,22.809004 5.410757,22.766029 c 0.022033,-0.02149 0.088134,-0.04297 0.154234,-0.06446 0.0661,0 0.1322006,-0.02149 0.1322006,-0.02149 h 0.9474376 c 0.7932035,0.02149 0.9254041,0.02149 1.0135378,0.06446 z"
     fill="#ffe8c0"
     id="path10" />
  <path
     style="stroke-width:2.05655;stroke-miterlimit:4;stroke-dasharray:none"
     d="m 24.868401,19.689031 v 4.965429 h -5.111792 v 1.655144 h 4.90732 v 4.965429 h 1.635775 v -4.965429 h 4.90732 V 24.65446 h -4.90732 v -4.965429 z"
     fill="#e0e0e0"
     id="path12" />
</svg>
